<svg width="32" height="32" viewBox="0 0 32 32" fill="none" xmlns="http://www.w3.org/2000/svg">
<path d="M28 23.5396V23.2557C27.9719 23.0682 27.9324 22.8826 27.8817 22.6998C27.8228 22.5123 27.7477 22.3303 27.657 22.1558C27.5837 21.9679 27.4884 21.7892 27.3732 21.6236L19.9104 11.0385V6.11853H21.6608C21.9494 6.11853 22.2261 6.0039 22.4302 5.79984C22.6342 5.59579 22.7489 5.31903 22.7489 5.03046C22.7489 4.74188 22.6342 4.46513 22.4302 4.26107C22.2261 4.05702 21.9494 3.94238 21.6608 3.94238H10.3425C10.0539 3.94238 9.77714 4.05702 9.57308 4.26107C9.36903 4.46513 9.25439 4.74188 9.25439 5.03046C9.25439 5.31903 9.36903 5.59579 9.57308 5.79984C9.77714 6.0039 10.0539 6.11853 10.3425 6.11853H12.0928V11.0385L4.64191 21.6118C4.53562 21.7868 4.44081 21.9685 4.35806 22.1558C4.2807 22.3332 4.21357 22.5148 4.15701 22.6998C4.05373 23.0613 4.00197 23.4356 4.00326 23.8116C3.99859 23.8903 3.99859 23.9693 4.00326 24.0481C4.02848 24.5029 4.12837 24.9504 4.29893 25.3727C4.46135 25.8044 4.69745 26.2045 4.99672 26.5554C5.10646 26.6967 5.22921 26.8274 5.36335 26.9457C5.49698 27.07 5.63926 27.1846 5.78912 27.2887L6.26219 27.5844L6.78258 27.8091C7.246 27.973 7.7339 28.0569 8.22546 28.0574H23.766C24.2613 28.0558 24.7529 27.9719 25.2207 27.8091L25.7292 27.5844C26.2167 27.3259 26.6502 26.9767 27.0066 26.5554C27.4107 26.068 27.7051 25.4992 27.8699 24.8878C27.937 24.6201 27.9805 24.3471 28 24.0718V23.5277V23.5396ZM25.6938 24.0481C25.6938 24.1191 25.6938 24.19 25.6346 24.261V24.3556L25.5637 24.5212C25.4404 24.8075 25.2592 25.0652 25.0315 25.2781L24.9132 25.3727C24.855 25.4262 24.7916 25.4738 24.724 25.5146L24.5466 25.6211L24.4046 25.692L24.1208 25.7985C23.9118 25.8507 23.6975 25.8785 23.4821 25.8813H8.54478H8.21363C7.91218 25.8364 7.6227 25.7318 7.36209 25.5738L7.16104 25.4437C7.0688 25.3711 6.98185 25.2921 6.90084 25.2071C6.75505 25.0516 6.63165 24.8764 6.53421 24.6868C6.52955 24.6396 6.52955 24.592 6.53421 24.5448C6.42441 24.3024 6.36026 24.0418 6.34498 23.7761C6.31909 23.308 6.4434 22.8439 6.69979 22.4515L14.2572 11.8664V6.11853H17.7461V11.8664L25.3744 22.416C25.4537 22.5292 25.5174 22.6525 25.5637 22.7826C25.6683 23.0381 25.7245 23.3108 25.7292 23.5869C25.729 23.7413 25.7172 23.8955 25.6938 24.0481Z" fill="#0B57D0"/>
<path d="M8.343 22.7993C8.24932 22.9466 8.19713 23.1164 8.19196 23.2909C8.18678 23.4654 8.22879 23.6381 8.31357 23.7907C8.39835 23.9433 8.52275 24.0702 8.67364 24.158C8.82453 24.2458 8.99632 24.2912 9.17088 24.2895H22.8664C23.041 24.2912 23.2128 24.2458 23.3637 24.158C23.5145 24.0702 23.6389 23.9433 23.7237 23.7907C23.8085 23.6381 23.8505 23.4654 23.8453 23.2909C23.8402 23.1164 23.788 22.9466 23.6943 22.7993L18.8334 16.2354H13.192L8.343 22.7993Z" fill="#0B57D0"/>
</svg>
